<svg xmlns="http://www.w3.org/2000/svg" viewBox="0 0 1440 900">
  <defs>
    <filter id="shadow" x="-20%" y="-20%" width="140%" height="140%"><feDropShadow dx="0" dy="6" stdDeviation="10" flood-color="#0f172a" flood-opacity=".07"/></filter>
    <style>.t{font-family:Inter,"Segoe UI",Arial,sans-serif}.muted{fill:#64748b}.text{fill:#0f172a}.b{font-weight:700}.xs{font-size:12px}.sm{font-size:14px}.md{font-size:16px}.card{fill:#fff;stroke:#e2e8f0}.soft{fill:#f0f4fb}</style>
  </defs>
  <rect width="1440" height="900" fill="#f6f8fc"/>
  <rect width="1440" height="40" fill="#fff"/><line y1="40" x2="1440" y2="40" stroke="#e2e8f0"/>
  <text x="1020" y="25" class="t xs muted">⌘K  快速搜索</text><text x="1160" y="25" class="t xs muted">⌘/  快捷键</text><text x="1280" y="25" class="t xs muted">☁ 云同步：关闭</text>
  <rect y="40" width="240" height="860" fill="#fff"/><line x1="240" y1="40" x2="240" y2="900" stroke="#e2e8f0"/>
  <text x="24" y="82" class="t" font-size="24" font-weight="800" fill="#0f172a">光阶Todo</text><text x="24" y="105" class="t xs muted">拾光而上，有序人生</text>
  <text x="48" y="158" class="t sm muted">▦ 总览</text><text x="48" y="204" class="t sm muted">▤ 任务看板</text><rect x="16" y="230" width="208" height="40" rx="10" fill="#eef2ff"/><text x="48" y="256" class="t sm b" fill="#6366f1">◎ 目标</text><text x="48" y="302" class="t sm muted">▣ 日历</text><text x="48" y="348" class="t sm muted">◴ 番茄钟</text>
  <text x="24" y="412" class="t xs b muted">已固定</text><circle cx="32" cy="446" r="4" fill="#10b981"/><text x="48" y="451" class="t sm text">【示例】Agent 学习</text>
  <rect x="16" y="792" width="208" height="72" rx="12" fill="#f0f4fb"/><circle cx="48" cy="828" r="18" fill="#6366f1"/><text x="42" y="835" class="t md b" fill="#fff">M</text><text x="76" y="822" class="t sm b text">Mark</text><text x="76" y="844" class="t xs muted">持续构建长期能力</text>
  <g transform="translate(280 72)">
    <text x="0" y="28" class="t" font-size="26" font-weight="700" fill="#0f172a">◎ 目标</text>
    <rect x="770" y="0" width="82" height="38" rx="10" fill="#fff" stroke="#e2e8f0"/><text x="792" y="25" class="t xs muted">回收站</text>
    <rect x="864" y="0" width="82" height="38" rx="10" fill="#fff" stroke="#e2e8f0"/><text x="888" y="25" class="t xs muted">草稿箱</text>
    <rect x="958" y="0" width="122" height="38" rx="10" fill="#6366f1"/><text x="994" y="25" class="t xs b" fill="#fff">+ 新建目标</text>
    <g transform="translate(0 64)">
      <rect width="420" height="42" rx="10" fill="#fff" stroke="#e2e8f0"/><text x="38" y="27" class="t sm muted">搜索目标或关键结果</text><text x="18" y="27" class="t sm muted">⌕</text>
      <rect x="438" width="96" height="42" rx="10" fill="#fff" stroke="#e2e8f0"/><text x="462" y="27" class="t sm muted">状态筛选</text><text x="980" y="27" class="t sm muted">共 3 个目标</text>
    </g>
    <g transform="translate(0 130)">
      <rect width="1080" height="604" rx="16" fill="#fff" stroke="#e2e8f0" filter="url(#shadow)"/>
      <rect width="1080" height="50" rx="16" fill="#fff"/><line y1="50" x2="1080" y2="50" stroke="#e2e8f0"/><line x1="620" y1="0" x2="620" y2="604" stroke="#e2e8f0"/><line x1="940" y1="0" x2="940" y2="604" stroke="#e2e8f0"/>
      <text x="24" y="31" class="t sm b text">标题</text><text x="748" y="31" class="t sm b text">进度</text><text x="988" y="31" class="t sm b text">权重</text>
      <g transform="translate(0 50)">
        <rect width="1080" height="92" fill="#fff"/><line y1="92" x2="1080" y2="92" stroke="#e2e8f0"/>
        <text x="26" y="35" class="t sm b text">⌄ 【示例】构建个人 Agent 原型</text><text x="48" y="63" class="t xs muted">周期：本季度 · 截止 2026-08-07 · 2 个关键结果</text>
        <rect x="660" y="34" width="230" height="10" rx="5" fill="#e2e8f0"/><rect x="660" y="34" width="154" height="10" rx="5" fill="#6366f1"/><text x="900" y="43" class="t xs muted">67%</text><text x="992" y="43" class="t sm text">45%</text>
      </g>
      <g transform="translate(0 142)">
        <rect width="1080" height="72" fill="#f8fafc"/><line y1="72" x2="1080" y2="72" stroke="#e2e8f0"/>
        <text x="54" y="31" class="t sm text">KR：完成工具调用 Demo 的端到端闭环</text><text x="54" y="55" class="t xs muted">指标型 · 当前 6 / 10 次 · 检查日期 07-15</text>
        <rect x="660" y="28" width="230" height="10" rx="5" fill="#e2e8f0"/><rect x="660" y="28" width="138" height="10" rx="5" fill="#6366f1"/><text x="900" y="37" class="t xs muted">60%</text><text x="992" y="37" class="t sm text">25%</text>
      </g>
      <g transform="translate(0 214)">
        <rect width="1080" height="72" fill="#fff"/><line y1="72" x2="1080" y2="72" stroke="#e2e8f0"/>
        <text x="54" y="31" class="t sm text">KR：沉淀 3 篇真实开发复盘</text><text x="54" y="55" class="t xs muted">指标型 · 当前 2 / 3 篇 · 状态正常</text>
        <rect x="660" y="28" width="230" height="10" rx="5" fill="#e2e8f0"/><rect x="660" y="28" width="153" height="10" rx="5" fill="#10b981"/><text x="900" y="37" class="t xs muted">67%</text><text x="992" y="37" class="t sm text">20%</text>
      </g>
      <g transform="translate(0 286)">
        <rect width="1080" height="92" fill="#fff"/><line y1="92" x2="1080" y2="92" stroke="#e2e8f0"/>
        <text x="26" y="35" class="t sm b text">› 【示例】建立健康学习节奏</text><text x="48" y="63" class="t xs muted">每天轻量推进，避免高强度后快速中断</text>
        <rect x="660" y="34" width="230" height="10" rx="5" fill="#e2e8f0"/><rect x="660" y="34" width="193" height="10" rx="5" fill="#10b981"/><text x="900" y="43" class="t xs muted">84%</text><text x="992" y="43" class="t sm text">35%</text>
      </g>
      <g transform="translate(0 378)">
        <rect width="1080" height="92" fill="#fff"/><line y1="92" x2="1080" y2="92" stroke="#e2e8f0"/>
        <text x="26" y="35" class="t sm b text">› 【示例】完成一次公开分享准备</text><text x="48" y="63" class="t xs muted">整理个人学习路径，形成可讲述的结构</text>
        <rect x="660" y="34" width="230" height="10" rx="5" fill="#e2e8f0"/><rect x="660" y="34" width="95" height="10" rx="5" fill="#f59e0b"/><text x="900" y="43" class="t xs muted">41%</text><text x="992" y="43" class="t sm text">20%</text>
      </g>
      <g transform="translate(0 470)">
        <rect width="1080" height="134" rx="0" fill="#f8fafc"/>
        <text x="24" y="36" class="t md b text">目标详情预览</text><text x="24" y="64" class="t xs muted">点击目标后可查看关键结果、关联任务和进度历史</text>
        <rect x="24" y="84" width="208" height="30" rx="8" fill="#eef2ff" stroke="#c7d2fe"/><text x="42" y="104" class="t xs" fill="#6366f1">更新进度 applies changes together</text>
        <path d="M360 104 C420 60 500 128 570 82 S710 62 780 108 S900 90 1018 70" fill="none" stroke="#6366f1" stroke-width="4" stroke-linecap="round"/>
      </g>
    </g>
  </g>
</svg>
